<?xml version="1.0" encoding="UTF-8"?>
<svg width="2493px" height="391px" viewBox="0 0 2493 391" version="1.1" xmlns="http://www.w3.org/2000/svg" xmlns:xlink="http://www.w3.org/1999/xlink">
    <!-- Generator: Sketch 41.2 (35397) - http://www.bohemiancoding.com/sketch -->
    <title>Obvious-logo</title>
    <desc>Created with Sketch.</desc>
    <defs>
        <path d="M195.98642,188.841746 L214.471504,200.627946 C220.153505,204.250824 219.71046,208.589782 213.489296,210.317237 L134.007233,232.387337 L181.968266,197.764532 L163.871596,186.225985 C158.191007,182.604008 158.627711,178.267857 164.857476,176.538014 L240.657139,155.49042 L195.98642,188.841746 Z" id="path-1"></path>
        <filter x="-50%" y="-50%" width="200%" height="200%" filterUnits="objectBoundingBox" id="filter-2">
            <feOffset dx="-1" dy="0" in="SourceAlpha" result="shadowOffsetOuter1"></feOffset>
            <feGaussianBlur stdDeviation="2" in="shadowOffsetOuter1" result="shadowBlurOuter1"></feGaussianBlur>
            <feColorMatrix values="0 0 0 0 0   0 0 0 0 0   0 0 0 0 0  0 0 0 0.5 0" type="matrix" in="shadowBlurOuter1"></feColorMatrix>
        </filter>
    </defs>
    <g id="Page-1" stroke="none" stroke-width="1" fill="none" fill-rule="evenodd">
        <g id="Obvious-logo" transform="translate(0.000000, 0.451225)">
            <g id="S_logo_4" transform="translate(0.000000, 0.016548)">
                <path d="M190.039017,389.715786 C294.74978,389.715786 379.634625,302.563837 379.634625,195.05646 C379.634625,87.5490829 294.74978,0.397134003 190.039017,0.397134003 C85.3282545,0.397134003 0.44340942,87.5490829 0.44340942,195.05646 C0.44340942,302.563837 85.3282545,389.715786 190.039017,389.715786 Z" id="Combined-Shape" fill="#000000"></path>
                <g id="Combined-Shape" transform="translate(187.332186, 193.938879) rotate(-29.000000) translate(-187.332186, -193.938879) ">
                    <use fill="black" fill-opacity="1" filter="url(#filter-2)" xlink:href="#path-1"></use>
                    <use fill="#FFFFFF" fill-rule="evenodd" xlink:href="#path-1"></use>
                </g>
            </g>
            <path d="M416.865234,17.8816375 L623.896484,17.8816375 C658.401865,17.8816375 684.890858,26.426474 703.364258,43.5164032 C721.837657,60.6063324 731.074219,81.7649749 731.074219,106.992966 C731.074219,128.151926 724.482488,146.299531 711.298828,161.436325 C702.509722,171.527521 689.651777,179.502702 672.724609,185.362106 C698.440884,191.547033 717.361593,202.167044 729.487305,217.222458 C741.613016,232.277872 747.675781,251.198581 747.675781,273.985153 C747.675781,292.539933 743.362673,309.222709 734.736328,324.033981 C726.109983,338.845253 714.309971,350.563886 699.335938,359.190231 C690.058547,364.561352 676.061292,368.467563 657.34375,370.908981 C632.441282,374.164206 615.921265,375.791794 607.783203,375.791794 L416.865234,375.791794 L416.865234,17.8816375 Z M528.4375,158.262497 L576.533203,158.262497 C593.785894,158.262497 605.789354,155.292149 612.543945,149.351364 C619.298536,143.410579 622.675781,134.825053 622.675781,123.594528 C622.675781,113.177809 619.298536,105.03987 612.543945,99.1804657 C605.789354,93.3210614 594.030032,90.3914032 577.265625,90.3914032 L528.4375,90.3914032 L528.4375,158.262497 Z M528.4375,298.887497 L584.833984,298.887497 C603.877048,298.887497 617.304648,295.510252 625.117188,288.755661 C632.929727,282.00107 636.835938,272.927267 636.835938,261.533981 C636.835938,250.954501 632.970416,242.450355 625.239258,236.021286 C617.508099,229.592217 603.95843,226.377731 584.589844,226.377731 L528.4375,226.377731 L528.4375,298.887497 Z M763.176719,17.8816375 L878.899375,17.8816375 L959.465781,275.449997 L1038.81148,17.8816375 L1151.11617,17.8816375 L1018.30367,375.791794 L898.430625,375.791794 L763.176719,17.8816375 Z M1184.92766,17.8816375 L1295.7675,17.8816375 L1295.7675,375.791794 L1184.92766,375.791794 L1184.92766,17.8816375 Z M1354.23719,197.080856 C1354.23719,138.649575 1370.51307,93.158493 1403.06531,60.6062469 C1435.61756,28.0540008 1480.94588,11.7781219 1539.05164,11.7781219 C1598.62225,11.7781219 1644.52023,27.7691729 1676.74695,59.7517547 C1708.97368,91.7343365 1725.0868,136.533693 1725.0868,194.151169 C1725.0868,235.980805 1718.04748,270.28222 1703.96863,297.056442 C1689.88979,323.830665 1669.54494,344.66379 1642.93348,359.556442 C1616.32202,374.449095 1583.15991,381.895309 1543.44617,381.895309 C1503.08139,381.895309 1469.67515,375.466337 1443.22645,362.6082 C1416.77775,349.750063 1395.33427,329.405214 1378.89539,301.573044 C1362.45651,273.740873 1354.23719,238.910493 1354.23719,197.080856 Z M1464.83289,197.569138 C1464.83289,233.702131 1471.54669,259.662158 1484.97449,275.449997 C1498.40229,291.237836 1516.67197,299.131638 1539.78406,299.131638 C1563.5472,299.131638 1581.93895,291.400595 1594.95984,275.938278 C1607.98074,260.475961 1614.49109,232.725588 1614.49109,192.686325 C1614.49109,158.99475 1607.69591,134.377483 1594.10535,118.833786 C1580.51479,103.290088 1562.08236,95.5183563 1538.8075,95.5183563 C1516.50921,95.5183563 1498.60574,103.412158 1485.09656,119.199997 C1471.58738,134.987836 1464.83289,161.110622 1464.83289,197.569138 Z M2010.60727,17.8816375 L2120.95883,17.8816375 L2120.95883,231.260544 C2120.95883,252.419504 2117.66296,272.398145 2111.07113,291.197067 C2104.4793,309.995989 2094.14412,326.434627 2080.06527,340.513473 C2065.98643,354.59232 2051.21607,364.479916 2035.75375,370.176559 C2014.26927,378.15186 1988.472,382.13945 1958.36117,382.13945 C1940.94572,382.13945 1921.94363,380.918759 1901.35434,378.477341 C1880.76504,376.035922 1863.5533,371.193848 1849.71859,363.950973 C1835.88389,356.708099 1823.22939,346.413605 1811.75473,333.067184 C1800.28006,319.720764 1792.42695,305.967646 1788.19516,291.807419 C1781.35918,269.020847 1777.94125,248.838757 1777.94125,231.260544 L1777.94125,17.8816375 L1888.29281,17.8816375 L1888.29281,236.387497 C1888.29281,255.918845 1893.70454,271.177481 1904.52816,282.163864 C1915.35179,293.150247 1930.36628,298.643356 1949.57211,298.643356 C1968.61517,298.643356 1983.54829,293.231627 1994.37191,282.408005 C2005.19554,271.584383 2010.60727,256.244367 2010.60727,236.387497 L2010.60727,17.8816375 Z M2167.95391,257.383591 L2273.17852,250.791794 C2275.45717,267.881723 2280.0958,280.902426 2287.09453,289.854294 C2298.48782,304.340043 2314.7637,311.582809 2335.92266,311.582809 C2351.7105,311.582809 2363.87671,307.880047 2372.42168,300.474411 C2380.96664,293.068775 2385.23906,284.483249 2385.23906,274.717575 C2385.23906,265.440185 2381.17009,257.139487 2373.03203,249.815231 C2364.89397,242.490976 2346.01395,235.573727 2316.39141,229.063278 C2267.88856,218.158276 2233.30232,203.672744 2212.63164,185.606247 C2191.7982,167.53975 2181.38164,144.509382 2181.38164,116.51445 C2181.38164,98.122431 2186.71199,80.7479303 2197.37285,64.3904266 C2208.03371,48.0329229 2224.06545,35.1749786 2245.46855,25.8162079 C2266.87166,16.4574371 2296.20893,11.7781219 2333.48125,11.7781219 C2379.21716,11.7781219 2414.08823,20.2822687 2438.09551,37.2908172 C2462.10279,54.2993658 2476.38487,81.3580145 2480.94219,118.467575 L2376.69414,124.571091 C2373.9272,108.457729 2368.10857,96.739096 2359.23809,89.4148407 C2350.3676,82.0905853 2338.12,78.4285125 2322.49492,78.4285125 C2309.63678,78.4285125 2299.95264,81.1547223 2293.44219,86.6072235 C2286.93174,92.0597247 2283.67656,98.6921454 2283.67656,106.504684 C2283.67656,112.201327 2286.36208,117.328229 2291.7332,121.885544 C2296.94156,126.605619 2309.31123,131.000107 2328.84258,135.069138 C2377.18266,145.485856 2411.8096,156.024488 2432.72441,166.685348 C2453.63923,177.346209 2468.85718,190.570361 2478.37871,206.3582 C2487.90024,222.146039 2492.66094,239.805368 2492.66094,259.336716 C2492.66094,282.286049 2486.31334,303.444692 2473.61797,322.813278 C2460.92259,342.181865 2443.18188,356.870845 2420.39531,366.880661 C2397.60874,376.890477 2368.88181,381.895309 2334.21367,381.895309 C2273.34097,381.895309 2231.18645,370.176677 2207.74883,346.739059 C2184.31121,323.301442 2171.04637,293.516584 2167.95391,257.383591 Z" id="BVIOUS" fill="#000000"></path>
        </g>
    </g>
</svg>